<control> default_path=Sustain\
<region> sample=2_F.wav pitch_keycenter=f2 hikey=f#2
<region> sample=2_A.wav pitch_keycenter=a2 lokey=g2 hikey=a#2
<region> sample=3_C.wav pitch_keycenter=c3 lokey=b2 hikey=c#3
<region> sample=3_Eb.wav pitch_keycenter=d#3 lokey=d3 hikey=e3
<region> sample=3_Gb.wav pitch_keycenter=f#3 lokey=f3 hikey=g3
<region> sample=3_A.wav pitch_keycenter=a3 lokey=g#3 hikey=a#3
<region> sample=4_C.wav pitch_keycenter=c4 lokey=b3 hikey=c#4
<region> sample=4_Eb.wav pitch_keycenter=d#4 lokey=d4 hikey=e4
<region> sample=4_Gb.wav pitch_keycenter=f#4 lokey=f4 hikey=g4
<region> sample=4_A.wav pitch_keycenter=a4 lokey=g#4 hikey=a#4
<region> sample=5_C.wav pitch_keycenter=c5 lokey=b4